<?xml version="1.0" encoding="UTF-8" standalone="no"?>
<!DOCTYPE svg PUBLIC "-//W3C//DTD SVG 1.1//EN" "http://www.w3.org/Graphics/SVG/1.1/DTD/svg11.dtd">
<svg width="100%" height="100%" viewBox="0 0 1065 1143" version="1.1" xmlns="http://www.w3.org/2000/svg" xmlns:xlink="http://www.w3.org/1999/xlink" xml:space="preserve" xmlns:serif="http://www.serif.com/" style="fill-rule:evenodd;clip-rule:evenodd;stroke-linejoin:round;stroke-miterlimit:2;">
    <g transform="matrix(0.303389,0,0,0.461186,0,9.59443)">
        <rect id="Artboard1" x="0" y="-20.804" width="3507.87" height="2477.5" style="fill:none;"/>
        <g id="Artboard11" serif:id="Artboard1">
            <g transform="matrix(3.01089,-0.882296,1.34119,1.9807,-4716.17,683.25)">
                <path d="M1944.47,671.136C2107.89,798.486 2162.56,1049.52 1998.15,1260.5C1959.03,1310.7 1904.72,1369.34 1845.43,1394.78C1695.79,1458.98 1595.62,1465.23 1446.94,1433.81C1418.93,1427.88 1389.85,1423.66 1361.15,1425.48C1314.86,1428.39 1235.09,1441.51 1195.89,1403.34C1151.58,1360.21 1177.01,1229.85 1171.62,1172.33C1159.84,1046.52 1140.61,940.278 1214.02,826.384C1333.26,641.381 1765.44,482.44 1944.47,671.136Z" style="fill:rgb(244,206,20);"/>
            </g>
            <g transform="matrix(3.01089,-0.882296,1.34119,1.9807,-4918.96,970.756)">
                <path d="M2131.08,471.378C2018.34,608.873 1958.31,778.529 2055.24,944.62C2087.4,999.72 2123.13,1010.69 2178.06,1043.46C2204.66,1059.34 2235.41,1161.77 2263.84,1142.66C2304.38,1115.42 2336.73,1007.63 2352.03,963.343C2400.49,823.045 2369.21,590.5 2226.16,513.589C2196.99,497.905 2164.51,468.301 2131.08,471.378Z" style="fill:rgb(73,94,87);"/>
            </g>
        </g>
    </g>
</svg>
