<?xml version="1.0" encoding="UTF-8" standalone="no"?>
<!DOCTYPE svg PUBLIC "-//W3C//DTD SVG 1.1//EN" "http://www.w3.org/Graphics/SVG/1.1/DTD/svg11.dtd">
<svg width="100%" height="100%" viewBox="0 0 1065 1143" version="1.1" xmlns="http://www.w3.org/2000/svg" xmlns:xlink="http://www.w3.org/1999/xlink" xml:space="preserve" xmlns:serif="http://www.serif.com/" style="fill-rule:evenodd;clip-rule:evenodd;stroke-linejoin:round;stroke-miterlimit:2;">
    <g transform="matrix(0.303389,0,0,0.461186,0,9.59443)">
        <rect id="Artboard1" x="0" y="-20.804" width="3507.87" height="2477.5" style="fill:none;"/>
        <g id="Artboard11" serif:id="Artboard1">
            <g transform="matrix(3.01089,-0.882296,1.34119,1.9807,-4716.17,683.25)">
                <path d="M1944.47,671.136C2107.89,798.486 2162.56,1049.52 1998.15,1260.5C1959.03,1310.7 1904.72,1369.34 1845.43,1394.78C1695.79,1458.98 1595.62,1465.23 1446.94,1433.81C1418.93,1427.88 1389.85,1423.66 1361.15,1425.48C1314.86,1428.39 1235.09,1441.51 1195.89,1403.34C1151.58,1360.21 1177.01,1229.85 1171.62,1172.33C1159.84,1046.52 1140.61,940.278 1214.02,826.384C1333.26,641.381 1765.44,482.44 1944.47,671.136ZM1914.25,699.814C1851.32,633.485 1752.03,618.958 1649.74,632.302C1487.61,653.455 1315.48,745.873 1249.04,848.958C1181.32,954.018 1202.24,1052.39 1213.11,1168.44C1216.38,1203.35 1208.57,1264.78 1211.37,1317.76C1212.11,1331.88 1213.63,1345.27 1216.93,1356.85C1218.83,1363.48 1220.85,1369.49 1224.95,1373.49C1237.62,1385.82 1257.59,1387.45 1277.39,1388.18C1306.53,1389.25 1336.51,1385.28 1358.53,1383.89C1390.98,1381.84 1423.89,1386.35 1455.56,1393.04C1594.89,1422.49 1688.77,1416.65 1829,1356.49C1882.26,1333.64 1930.15,1279.98 1965.28,1234.89C2113.34,1044.91 2066.02,818.679 1918.86,704.001C1917.22,702.723 1915.68,701.323 1914.25,699.814Z" style="fill:rgb(73,94,87);"/>
            </g>
            <g transform="matrix(3.01089,-0.882296,1.34119,1.9807,-4918.96,970.756)">
                <path d="M2131.08,471.378C2018.34,608.873 1958.31,778.529 2055.24,944.62C2087.4,999.72 2123.13,1010.69 2178.06,1043.46C2204.66,1059.34 2235.41,1161.77 2263.84,1142.66C2304.38,1115.42 2336.73,1007.63 2352.03,963.343C2400.49,823.045 2369.21,590.5 2226.16,513.589C2196.99,497.905 2164.51,468.301 2131.08,471.378Z" style="fill:rgb(73,94,87);"/>
            </g>
        </g>
    </g>
</svg>
